<?xml version="1.0" standalone="no"?>
<!DOCTYPE svg PUBLIC "-//W3C//DTD SVG 20010904//EN"
 "http://www.w3.org/TR/2001/REC-SVG-20010904/DTD/svg10.dtd">
<svg version="1.0" xmlns="http://www.w3.org/2000/svg"
 width="1024.000000pt" height="1024.000000pt" viewBox="0 0 1024.000000 1024.000000"
 preserveAspectRatio="xMidYMid meet">

<g transform="translate(0.000000,1024.000000) scale(0.100000,-0.100000)"
fill="#000000" stroke="none">
<path d="M0 5120 l0 -5120 5120 0 5120 0 0 5120 0 5120 -5120 0 -5120 0 0
-5120z m9165 1854 c46 -25 66 -45 89 -91 14 -29 16 -148 16 -1270 l0 -1238
-750 -3 -750 -4 0 121 0 121 685 0 685 0 0 1107 c0 1015 -1 1108 -17 1125 -15
17 -86 18 -1864 18 l-1848 0 -15 -22 c-14 -20 -16 -117 -16 -850 l0 -828 -65
0 -65 0 0 708 c0 389 -3 768 -7 843 -6 150 1 180 56 233 61 59 -55 55 1966 53
l1860 -2 40 -21z m-5535 -939 l0 -556 -102 3 -103 3 -2 553 -3 552 105 0 105
0 0 -555z m-2440 85 l0 -450 235 0 235 0 0 -95 0 -95 -340 0 -340 0 0 545 0
545 105 0 105 0 0 -450z m6337 259 c32 -12 59 -23 61 -24 1 -1 -20 -65 -48
-141 -28 -76 -119 -328 -202 -559 -83 -231 -152 -422 -154 -424 -1 -1 -32 7
-68 19 -64 21 -65 22 -55 48 6 15 96 264 199 555 104 290 192 532 195 537 8
13 5 13 72 -11z m-5281 -113 c74 -34 138 -97 176 -174 29 -59 32 -73 32 -166
l1 -101 -272 -3 -271 -2 10 -38 c15 -55 55 -102 106 -124 37 -17 61 -20 131
-16 72 3 96 9 150 36 35 18 64 32 66 30 9 -13 75 -138 75 -142 0 -10 -113 -63
-170 -80 -83 -25 -241 -23 -312 4 -172 64 -258 192 -258 385 0 145 38 244 124
323 51 47 111 80 169 92 68 15 183 3 243 -24z m852 6 c77 -30 117 -64 149
-129 l28 -58 3 -302 3 -303 -95 0 -96 0 0 47 0 47 -32 -31 c-55 -53 -111 -73
-209 -73 -104 0 -164 19 -213 66 -47 46 -67 85 -73 148 -11 111 38 195 143
247 66 33 70 33 227 37 l159 4 -6 36 c-13 81 -65 116 -171 114 -74 0 -138 -18
-185 -52 l-29 -21 -41 72 c-23 39 -38 75 -34 79 19 19 137 71 191 85 77 20
212 13 281 -13z m3780 -144 l-3 -70 -190 -120 c-104 -65 -195 -122 -202 -126
-7 -4 69 -59 192 -137 l205 -130 0 -99 c0 -93 -1 -98 -17 -84 -10 8 -145 97
-300 197 l-283 183 0 66 0 67 88 53 c48 29 182 112 297 185 238 151 219 150
213 15z m1294 -167 l148 -96 0 -60 0 -60 -178 -115 c-97 -63 -230 -149 -294
-192 l-118 -77 0 92 0 92 196 129 195 129 -195 130 -196 129 0 94 0 94 148
-97 c81 -53 213 -139 294 -192z m-1672 -1286 l0 -525 -100 0 -100 0 0 525 0
525 100 0 100 0 0 -525z m-4955 486 c74 -23 162 -80 218 -140 90 -98 125 -222
114 -406 -10 -152 -40 -231 -122 -323 -55 -61 -112 -97 -196 -123 -53 -17 -94
-19 -320 -19 l-259 0 0 518 0 517 262 -6 c165 -4 278 -10 303 -18z m2236 -201
c29 -124 67 -290 85 -370 l31 -145 17 56 c9 30 54 194 100 363 46 169 86 309
88 311 2 2 39 5 83 6 l79 2 24 -89 c80 -306 176 -655 179 -648 1 5 36 167 78
359 42 193 78 357 80 365 4 12 24 15 112 13 98 -2 108 -3 105 -20 -2 -10 -58
-241 -126 -513 l-122 -495 -115 -3 -114 -3 -89 313 c-49 172 -92 319 -95 326
-4 7 -31 -74 -61 -180 -29 -106 -70 -251 -90 -323 l-37 -130 -114 -3 -114 -3
-128 513 c-70 282 -127 515 -127 518 0 3 49 5 109 5 l108 0 54 -225z m-1337
-51 c145 -54 239 -217 220 -382 l-6 -58 -254 3 c-284 3 -269 7 -235 -68 36
-78 101 -109 220 -102 63 4 89 11 136 36 32 18 59 31 61 29 1 -1 59 -113 72
-138 1 -3 -16 -15 -37 -27 -104 -58 -246 -84 -355 -63 -131 24 -225 95 -280
211 -29 61 -31 72 -31 185 0 110 2 125 28 180 36 78 107 150 182 186 51 25 72
29 142 29 58 0 98 -6 137 -21z m2968 -17 c79 -38 149 -110 186 -190 24 -51 27
-68 27 -172 0 -110 -1 -118 -33 -182 -41 -83 -119 -158 -200 -189 -46 -19 -77
-23 -162 -24 -99 0 -109 2 -172 33 -129 63 -206 181 -215 327 -9 136 21 228
104 316 89 95 153 120 299 116 90 -2 107 -6 166 -35z m778 -68 c0 -97 -1 -106
-17 -99 -10 4 -40 10 -68 12 -65 6 -112 -19 -145 -78 -24 -43 -25 -50 -28
-276 l-4 -233 -94 0 -94 0 0 380 0 380 93 0 92 0 -3 -52 -4 -53 31 37 c44 51
122 88 188 88 l53 0 0 -106z m1286 91 c27 -8 70 -28 96 -44 l47 -30 -40 -70
-40 -70 -47 30 c-82 52 -155 62 -209 29 -25 -15 -33 -27 -33 -48 0 -47 27 -64
171 -106 144 -42 211 -103 225 -207 12 -90 -40 -185 -126 -229 -102 -52 -265
-49 -382 8 -99 48 -96 41 -53 118 20 38 38 70 40 72 1 2 24 -10 49 -27 90 -56
204 -66 252 -20 51 48 16 95 -96 128 -164 48 -212 77 -251 152 -24 49 -25 131
0 185 22 49 89 108 145 128 54 19 190 20 252 1z m-4501 -262 c48 -142 89 -259
90 -261 2 -2 42 114 90 257 l87 261 108 0 109 0 -22 -57 c-12 -32 -76 -202
-142 -378 l-120 -320 -112 -3 -111 -3 -6 27 c-7 27 -230 627 -259 697 l-16 37
108 0 108 0 88 -257z m3999 245 c-5 -7 -60 -76 -124 -153 -64 -77 -119 -145
-123 -152 -6 -10 146 -232 281 -410 l24 -33 -126 0 -125 0 -133 196 c-73 107
-133 200 -133 205 0 5 54 88 120 184 l120 174 113 0 c88 1 111 -2 106 -11z
m2470 -988 c91 -192 166 -360 166 -374 0 -14 -9 -35 -20 -46 -20 -20 -33 -20
-2147 -20 l-2127 0 -23 22 c-13 12 -23 33 -23 46 0 13 34 84 75 157 l75 133
1950 -5 c1753 -5 1950 -4 1956 10 3 9 -28 80 -73 169 l-78 153 -719 3 c-618 2
-717 4 -713 16 3 8 11 32 16 53 l10 38 755 -3 754 -2 166 -350z m-8194 -145
c28 -14 50 -28 50 -31 0 -11 -33 -54 -42 -54 -5 0 -22 10 -37 21 -32 24 -103
28 -127 8 -17 -14 -18 -53 -1 -66 6 -6 44 -21 82 -33 120 -40 163 -107 119
-191 -34 -67 -157 -88 -250 -45 -28 13 -54 28 -58 34 -3 5 3 21 14 35 l21 26
46 -24 c71 -39 147 -28 159 22 9 36 -16 56 -101 82 -88 27 -125 62 -125 117 0
110 129 161 250 99z m800 5 c51 -26 55 -35 33 -71 -19 -30 -19 -30 -38 -9 -40
44 -130 46 -154 2 -17 -32 12 -58 91 -82 50 -15 82 -32 106 -56 32 -32 34 -38
29 -80 -8 -78 -71 -124 -167 -124 -53 0 -112 19 -142 47 -22 20 -22 22 1 50
l19 23 44 -25 c53 -31 106 -32 142 -4 51 40 22 77 -83 109 -86 25 -121 61
-121 121 0 53 13 75 58 98 50 27 131 27 182 1z m1443 -124 l55 -128 22 48 c12
27 37 86 57 132 l35 82 64 0 64 0 0 -210 0 -210 -40 0 -40 0 0 168 0 167 -62
-142 -61 -143 -33 0 c-31 0 -36 5 -62 58 -16 31 -44 95 -63 141 l-34 84 -3
-166 -2 -167 -35 0 -35 0 0 209 0 210 53 3 c28 2 55 1 58 -2 4 -3 32 -63 62
-134z m780 11 c25 -67 61 -161 80 -209 l35 -88 -43 0 c-42 0 -44 1 -57 43
l-15 42 -95 3 -95 3 -17 -46 c-17 -43 -20 -45 -57 -45 -21 0 -39 3 -39 6 0 11
152 399 161 409 4 6 28 9 52 7 l45 -4 45 -121z m528 106 c46 -24 48 -28 36
-47 -7 -12 -17 -27 -21 -34 -7 -11 -11 -10 -25 2 -9 8 -33 22 -54 31 -33 13
-41 14 -72 1 -27 -12 -35 -21 -35 -40 0 -28 21 -42 108 -71 30 -9 69 -31 88
-47 28 -25 34 -37 34 -70 0 -54 -24 -94 -70 -118 -65 -33 -173 -21 -234 28
l-23 18 23 28 24 27 31 -22 c66 -47 169 -31 169 26 0 29 -29 51 -95 70 -96 28
-135 66 -135 130 0 100 140 149 251 88z m-3211 -193 l0 -210 -35 0 -35 0 0
210 0 210 35 0 35 0 0 -210z m1040 180 l0 -30 -65 0 -65 0 0 -180 0 -180 -40
0 -40 0 0 180 0 180 -65 0 -65 0 0 30 0 30 170 0 170 0 0 -30z m480 0 l0 -30
-105 0 -105 0 0 -55 0 -55 100 0 100 0 0 -35 0 -35 -100 0 -100 0 0 -55 0 -55
110 0 110 0 0 -35 0 -36 -147 3 -148 3 -3 208 -2 207 145 0 145 0 0 -30z
m6411 -410 c-20 -17 -56 -34 -85 -40 -36 -8 -629 -10 -2026 -8 l-1975 3 -47
23 c-27 12 -48 27 -48 32 0 5 17 11 38 13 20 2 969 4 2107 5 l2070 1 -34 -29z"/>
<path d="M2025 6126 c-44 -20 -84 -67 -100 -119 -7 -25 -11 -48 -8 -51 4 -3
82 -6 175 -6 168 0 168 0 168 23 -1 32 -33 98 -61 124 -47 43 -117 54 -174 29z"/>
<path d="M2844 5816 c-68 -30 -85 -106 -36 -156 50 -49 153 -49 217 2 33 26
64 91 65 136 l0 32 -107 0 c-68 -1 -120 -6 -139 -14z"/>
<path d="M1190 4666 l0 -346 107 0 c186 0 273 41 329 156 23 47 28 73 32 158
8 184 -41 286 -168 347 -37 18 -68 23 -172 27 l-128 5 0 -347z"/>
<path d="M2238 4760 c-42 -23 -73 -69 -83 -122 l-7 -38 162 0 163 0 -6 42
c-14 107 -135 169 -229 118z"/>
<path d="M5155 4744 c-46 -24 -66 -45 -88 -94 -27 -60 -28 -168 -3 -233 43
-114 199 -152 295 -71 81 67 88 273 13 358 -45 50 -157 71 -217 40z"/>
<path d="M6944 3641 c-19 -40 -31 -77 -28 -82 3 -5 186 -9 415 -9 341 0 411 2
415 14 3 8 -8 45 -24 82 l-29 69 -358 0 -358 0 -33 -74z"/>
<path d="M4141 3613 c-17 -49 -31 -92 -31 -96 0 -4 29 -7 65 -7 45 0 65 4 65
13 0 13 -56 166 -63 173 -2 3 -18 -35 -36 -83z"/>
</g>
</svg>
